<svg width="341" height="62" viewBox="0 0 341 62" fill="none" xmlns="http://www.w3.org/2000/svg">
<path fill-rule="evenodd" clip-rule="evenodd" d="M0.210693 0.184814H88.0795V61.3855H40.595L33.4839 50.6021C35.6381 49.5054 37.3224 47.9779 38.5366 46.0194C39.79 44.061 40.4167 41.7697 40.4167 39.1454V22.0484C40.4167 20.0508 40.0641 18.249 39.3591 16.6431C38.6541 15.0372 37.6553 13.6663 36.3627 12.5304C35.0702 11.3554 33.5034 10.4545 31.6625 9.82781C29.8607 9.2011 27.8436 8.88776 25.611 8.88776C23.3784 8.88776 21.3416 9.2011 19.5007 9.82781C17.6989 10.4545 16.1518 11.3554 14.8593 12.5304C13.5667 13.6663 12.5679 15.0372 11.8629 16.6431C11.1578 18.249 10.8053 20.0508 10.8053 22.0484V39.1454C10.8053 41.143 11.1578 42.9447 11.8629 44.5506C12.5679 46.1565 13.5471 47.547 14.8005 48.7221C16.0931 49.8579 17.6402 50.7588 19.4419 51.4247C21.2437 52.0514 23.2413 52.3647 25.4347 52.3647L31.4292 61.3855H0.210693V0.184814ZM29.9587 43.1993C28.9011 44.1785 27.4519 44.6681 25.611 44.6681C23.7701 44.6681 22.3012 44.1785 21.2045 43.1993C20.147 42.1809 19.6182 40.8296 19.6182 39.1454V22.0484C19.6182 20.3641 20.147 19.0324 21.2045 18.0532C22.3012 17.0348 23.7701 16.5256 25.611 16.5256C27.4519 16.5256 28.9011 17.0348 29.9587 18.0532C31.0554 19.0324 31.6038 20.3641 31.6038 22.0484V39.1454C31.6038 40.8296 31.0554 42.1809 29.9587 43.1993ZM69.1771 10.4153C67.3363 9.78862 65.2603 9.47528 62.9493 9.47528H48.8487V51.7772H57.6029V35.3265H61.9506L69.1184 51.7772H78.5188L70.4109 33.9164C72.761 32.898 74.6019 31.4096 75.9337 29.4512C77.2654 27.4928 77.9312 25.1427 77.9312 22.4009C77.9312 20.4033 77.5787 18.6211 76.8737 17.0544C76.1686 15.4485 75.1699 14.0972 73.8774 13.0004C72.5848 11.8646 71.0181 11.0028 69.1771 10.4153ZM62.9493 28.5699H57.6029V16.8194H62.9493C64.8294 16.8194 66.3178 17.3677 67.4145 18.4644C68.5504 19.522 69.1184 20.9712 69.1184 22.8121C69.1184 24.5747 68.57 25.9848 67.4733 27.0423C66.3765 28.0607 64.8686 28.5699 62.9493 28.5699ZM97.3972 9.47534H111.557C113.75 9.47534 115.728 9.72995 117.491 10.2391C119.253 10.7483 120.742 11.4729 121.956 12.413C123.209 13.353 124.169 14.4889 124.835 15.8206C125.501 17.1524 125.834 18.6408 125.834 20.2858C125.834 22.9101 125.089 25.0252 123.601 26.6311C122.152 28.237 120.134 29.1575 117.549 29.3925V30.0388C120.37 30.2346 122.583 31.1747 124.188 32.8589C125.794 34.5431 126.597 36.7562 126.597 39.4979C126.597 41.378 126.245 43.0819 125.54 44.6094C124.874 46.0978 123.895 47.3904 122.602 48.4871C121.349 49.5447 119.802 50.3672 117.961 50.9547C116.159 51.5031 114.142 51.7773 111.909 51.7773H97.3972V9.47534ZM105.916 33.3877V44.7269H111.557C113.515 44.7269 115.023 44.2373 116.081 43.2581C117.177 42.2789 117.726 40.8884 117.726 39.0867C117.726 37.2849 117.177 35.8945 116.081 34.9152C115.023 33.8969 113.515 33.3877 111.557 33.3877H105.916ZM111.439 26.3374C113.123 26.3374 114.455 25.8869 115.434 24.986C116.453 24.0852 116.962 22.8905 116.962 21.4021C116.962 19.9137 116.472 18.7387 115.493 17.877C114.514 16.9761 113.163 16.5257 111.439 16.5257H105.916V26.3374H111.439ZM130.981 17.7007V9.47534H162.12V17.7007H150.957V51.7773H142.144V17.7007H130.981ZM195.88 9.47534H168.266V51.7773H177.079V34.8565H194.352V26.6311H176.961V17.7007H195.88V9.47534ZM236.282 13.1063L230.81 47.6663H240.362C242.026 47.6663 243.562 47.4263 244.97 46.9463C246.41 46.4343 247.674 45.7143 248.762 44.7863C249.882 43.8583 250.794 42.7543 251.498 41.4743C252.234 40.1623 252.73 38.7063 252.986 37.1063L255.098 23.6183C255.354 22.0183 255.322 20.5783 255.002 19.2983C254.682 18.0183 254.122 16.9143 253.322 15.9863C252.522 15.0583 251.482 14.3543 250.202 13.8743C248.954 13.3623 247.498 13.1063 245.834 13.1063H236.282ZM240.986 43.8263H235.658L239.882 16.9463H245.21C247.226 16.9463 248.762 17.5543 249.818 18.7703C250.874 19.9863 251.226 21.6023 250.874 23.6183L248.762 37.1063C248.442 39.1223 247.562 40.7543 246.122 42.0023C244.714 43.2183 243.002 43.8263 240.986 43.8263ZM262.279 45.4103C263.847 47.2343 266.279 48.1463 269.575 48.1463C272.871 48.1463 275.591 47.2343 277.735 45.4103C279.911 43.5543 281.271 41.0263 281.815 37.8263L282.871 31.0583C283.383 27.8263 282.839 25.3143 281.239 23.5223C279.671 21.6983 277.239 20.7863 273.943 20.7863C272.311 20.7863 270.807 21.0263 269.431 21.5063C268.055 21.9863 266.839 22.6743 265.783 23.5703C264.727 24.4663 263.847 25.5543 263.143 26.8343C262.471 28.0823 262.007 29.5063 261.751 31.1063L260.695 37.8263C260.183 41.0583 260.711 43.5863 262.279 45.4103ZM265.879 42.5783C264.983 41.4263 264.695 39.8423 265.015 37.8263L266.071 31.1063C266.391 29.0903 267.191 27.5063 268.471 26.3543C269.783 25.2023 271.399 24.6263 273.319 24.6263C275.239 24.6263 276.663 25.2023 277.591 26.3543C278.551 27.5063 278.871 29.0903 278.551 31.1063L277.495 37.8263C277.175 39.8423 276.359 41.4263 275.047 42.5783C273.735 43.7303 272.119 44.3063 270.199 44.3063C268.247 44.3063 266.807 43.7303 265.879 42.5783ZM298.788 48.1463C297.22 48.1463 295.828 47.9063 294.612 47.4263C293.428 46.9143 292.452 46.2103 291.684 45.3143C290.916 44.4183 290.388 43.3463 290.1 42.0983C289.812 40.8183 289.78 39.3943 290.004 37.8263L291.06 31.1063C291.572 27.8743 292.884 25.3463 294.996 23.5223C297.14 21.6983 299.86 20.7863 303.156 20.7863C304.532 20.7863 305.78 21.0103 306.9 21.4583C308.052 21.8743 309.028 22.4823 309.828 23.2823C310.628 24.0823 311.236 25.0263 311.652 26.1143C312.1 27.1703 312.308 28.3543 312.276 29.6663H307.956C308.02 28.1623 307.54 26.9463 306.516 26.0183C305.492 25.0903 304.164 24.6263 302.532 24.6263C300.612 24.6263 298.996 25.2023 297.684 26.3543C296.404 27.5063 295.604 29.0903 295.284 31.1063L294.228 37.8263C293.908 39.8423 294.196 41.4263 295.092 42.5783C296.02 43.7303 297.46 44.3063 299.412 44.3063C301.172 44.3063 302.676 43.8583 303.924 42.9623C305.172 42.0663 306.02 40.8343 306.468 39.2663H310.788C309.956 42.0823 308.5 44.2743 306.42 45.8423C304.34 47.3783 301.796 48.1463 298.788 48.1463ZM322.001 41.1863H317.777C317.681 43.2983 318.417 44.9943 319.985 46.2743C321.553 47.5223 323.697 48.1463 326.417 48.1463H327.761C330.865 48.1463 333.361 47.4583 335.249 46.0823C337.169 44.7063 338.321 42.7703 338.705 40.2743C339.057 38.0663 338.673 36.3223 337.553 35.0423C336.465 33.7623 334.593 32.9303 331.937 32.5463L328.049 31.9703C326.673 31.7783 325.713 31.4103 325.169 30.8663C324.657 30.2903 324.481 29.4903 324.641 28.4663C324.865 27.1863 325.473 26.2263 326.465 25.5863C327.457 24.9463 328.769 24.6263 330.401 24.6263H331.745C333.089 24.6263 334.177 24.8823 335.009 25.3943C335.841 25.9063 336.289 26.5943 336.353 27.4583H340.577C340.577 25.4103 339.825 23.7943 338.321 22.6103C336.849 21.3943 334.865 20.7863 332.369 20.7863H331.025C328.017 20.7863 325.585 21.4423 323.729 22.7543C321.905 24.0663 320.801 25.9063 320.417 28.2743C319.713 32.6263 321.841 35.1543 326.801 35.8583L330.689 36.4343C333.569 36.8503 334.833 38.1303 334.481 40.2743C334.289 41.5223 333.649 42.5143 332.561 43.2503C331.505 43.9543 330.113 44.3063 328.385 44.3063H327.041C325.569 44.3063 324.369 44.0183 323.441 43.4423C322.545 42.8663 322.065 42.1143 322.001 41.1863Z" fill="white"/>
</svg>
