<svg width="341" height="62" viewBox="0 0 341 62" fill="none" xmlns="http://www.w3.org/2000/svg">
<path fill-rule="evenodd" clip-rule="evenodd" d="M0.210693 0.671509H88.0795V61.8722H40.595L33.4839 51.0888C35.6381 49.9921 37.3224 48.4646 38.5366 46.5061C39.79 44.5477 40.4167 42.2564 40.4167 39.6321V22.535C40.4167 20.5375 40.0641 18.7357 39.3591 17.1298C38.6541 15.5239 37.6553 14.153 36.3627 13.0171C35.0702 11.8421 33.5034 10.9412 31.6625 10.3145C29.8607 9.6878 27.8436 9.37445 25.611 9.37445C23.3784 9.37445 21.3416 9.6878 19.5007 10.3145C17.6989 10.9412 16.1518 11.8421 14.8593 13.0171C13.5667 14.153 12.5679 15.5239 11.8629 17.1298C11.1578 18.7357 10.8053 20.5375 10.8053 22.535V39.6321C10.8053 41.6297 11.1578 43.4314 11.8629 45.0373C12.5679 46.6432 13.5471 48.0337 14.8005 49.2088C16.0931 50.3446 17.6402 51.2455 19.4419 51.9114C21.2437 52.5381 23.2413 52.8514 25.4347 52.8514L31.4292 61.8722H0.210693V0.671509ZM29.9587 43.686C28.9011 44.6652 27.4519 45.1548 25.611 45.1548C23.7701 45.1548 22.3012 44.6652 21.2045 43.686C20.147 42.6676 19.6182 41.3163 19.6182 39.6321V22.535C19.6182 20.8508 20.147 19.5191 21.2045 18.5399C22.3012 17.5215 23.7701 17.0123 25.611 17.0123C27.4519 17.0123 28.9011 17.5215 29.9587 18.5399C31.0554 19.5191 31.6038 20.8508 31.6038 22.535V39.6321C31.6038 41.3163 31.0554 42.6676 29.9587 43.686ZM69.1771 10.902C67.3363 10.2753 65.2603 9.96197 62.9493 9.96197H48.8487V52.2639H57.6029V35.8132H61.9506L69.1184 52.2639H78.5188L70.4109 34.4031C72.761 33.3847 74.6019 31.8963 75.9337 29.9379C77.2654 27.9795 77.9312 25.6294 77.9312 22.8876C77.9312 20.89 77.5787 19.1078 76.8737 17.5411C76.1686 15.9352 75.1699 14.5838 73.8774 13.4871C72.5848 12.3513 71.0181 11.4895 69.1771 10.902ZM62.9493 29.0566H57.6029V17.3061H62.9493C64.8294 17.3061 66.3178 17.8544 67.4145 18.9511C68.5504 20.0087 69.1184 21.4579 69.1184 23.2988C69.1184 25.0614 68.57 26.4715 67.4733 27.529C66.3765 28.5474 64.8686 29.0566 62.9493 29.0566ZM97.3972 9.96204H111.557C113.75 9.96204 115.728 10.2166 117.491 10.7258C119.253 11.235 120.742 11.9596 121.956 12.8997C123.209 13.8397 124.169 14.9756 124.835 16.3073C125.501 17.6391 125.834 19.1275 125.834 20.7725C125.834 23.3968 125.089 25.5119 123.601 27.1178C122.152 28.7237 120.134 29.6442 117.549 29.8792V30.5255C120.37 30.7213 122.583 31.6613 124.188 33.3456C125.794 35.0298 126.597 37.2428 126.597 39.9846C126.597 41.8647 126.245 43.5686 125.54 45.0961C124.874 46.5845 123.895 47.8771 122.602 48.9738C121.349 50.0314 119.802 50.8539 117.961 51.4414C116.159 51.9898 114.142 52.2639 111.909 52.2639H97.3972V9.96204ZM105.916 33.8744V45.2136H111.557C113.515 45.2136 115.023 44.724 116.081 43.7448C117.177 42.7656 117.726 41.3751 117.726 39.5734C117.726 37.7716 117.177 36.3811 116.081 35.4019C115.023 34.3836 113.515 33.8744 111.557 33.8744H105.916ZM111.439 26.824C113.123 26.824 114.455 26.3736 115.434 25.4727C116.453 24.5719 116.962 23.3772 116.962 21.8888C116.962 20.4004 116.472 19.2254 115.493 18.3637C114.514 17.4628 113.163 17.0123 111.439 17.0123H105.916V26.824H111.439ZM130.981 18.1874V9.96204H162.12V18.1874H150.957V52.2639H142.144V18.1874H130.981ZM195.88 9.96204H168.266V52.2639H177.079V35.3432H194.352V27.1178H176.961V18.1874H195.88V9.96204ZM236.282 13.593L230.81 48.153H240.362C242.026 48.153 243.562 47.913 244.97 47.433C246.41 46.921 247.674 46.201 248.762 45.273C249.882 44.345 250.794 43.241 251.498 41.961C252.234 40.649 252.73 39.193 252.986 37.593L255.098 24.105C255.354 22.505 255.322 21.065 255.002 19.785C254.682 18.505 254.122 17.401 253.322 16.473C252.522 15.545 251.482 14.841 250.202 14.361C248.954 13.849 247.498 13.593 245.834 13.593H236.282ZM240.986 44.313H235.658L239.882 17.433H245.21C247.226 17.433 248.762 18.041 249.818 19.257C250.874 20.473 251.226 22.089 250.874 24.105L248.762 37.593C248.442 39.609 247.562 41.241 246.122 42.489C244.714 43.705 243.002 44.313 240.986 44.313ZM262.279 45.897C263.847 47.721 266.279 48.633 269.575 48.633C272.871 48.633 275.591 47.721 277.735 45.897C279.911 44.041 281.271 41.513 281.815 38.313L282.871 31.545C283.383 28.313 282.839 25.801 281.239 24.009C279.671 22.185 277.239 21.273 273.943 21.273C272.311 21.273 270.807 21.513 269.431 21.993C268.055 22.473 266.839 23.161 265.783 24.057C264.727 24.953 263.847 26.041 263.143 27.321C262.471 28.569 262.007 29.993 261.751 31.593L260.695 38.313C260.183 41.545 260.711 44.073 262.279 45.897ZM265.879 43.065C264.983 41.913 264.695 40.329 265.015 38.313L266.071 31.593C266.391 29.577 267.191 27.993 268.471 26.841C269.783 25.689 271.399 25.113 273.319 25.113C275.239 25.113 276.663 25.689 277.591 26.841C278.551 27.993 278.871 29.577 278.551 31.593L277.495 38.313C277.175 40.329 276.359 41.913 275.047 43.065C273.735 44.217 272.119 44.793 270.199 44.793C268.247 44.793 266.807 44.217 265.879 43.065ZM298.788 48.633C297.22 48.633 295.828 48.393 294.612 47.913C293.428 47.401 292.452 46.697 291.684 45.801C290.916 44.905 290.388 43.833 290.1 42.585C289.812 41.305 289.78 39.881 290.004 38.313L291.06 31.593C291.572 28.361 292.884 25.833 294.996 24.009C297.14 22.185 299.86 21.273 303.156 21.273C304.532 21.273 305.78 21.497 306.9 21.945C308.052 22.361 309.028 22.969 309.828 23.769C310.628 24.569 311.236 25.513 311.652 26.601C312.1 27.657 312.308 28.841 312.276 30.153H307.956C308.02 28.649 307.54 27.433 306.516 26.505C305.492 25.577 304.164 25.113 302.532 25.113C300.612 25.113 298.996 25.689 297.684 26.841C296.404 27.993 295.604 29.577 295.284 31.593L294.228 38.313C293.908 40.329 294.196 41.913 295.092 43.065C296.02 44.217 297.46 44.793 299.412 44.793C301.172 44.793 302.676 44.345 303.924 43.449C305.172 42.553 306.02 41.321 306.468 39.753H310.788C309.956 42.569 308.5 44.761 306.42 46.329C304.34 47.865 301.796 48.633 298.788 48.633ZM322.001 41.673H317.777C317.681 43.785 318.417 45.481 319.985 46.761C321.553 48.009 323.697 48.633 326.417 48.633H327.761C330.865 48.633 333.361 47.945 335.249 46.569C337.169 45.193 338.321 43.257 338.705 40.761C339.057 38.553 338.673 36.809 337.553 35.529C336.465 34.249 334.593 33.417 331.937 33.033L328.049 32.457C326.673 32.265 325.713 31.897 325.169 31.353C324.657 30.777 324.481 29.977 324.641 28.953C324.865 27.673 325.473 26.713 326.465 26.073C327.457 25.433 328.769 25.113 330.401 25.113H331.745C333.089 25.113 334.177 25.369 335.009 25.881C335.841 26.393 336.289 27.081 336.353 27.945H340.577C340.577 25.897 339.825 24.281 338.321 23.097C336.849 21.881 334.865 21.273 332.369 21.273H331.025C328.017 21.273 325.585 21.929 323.729 23.241C321.905 24.553 320.801 26.393 320.417 28.761C319.713 33.113 321.841 35.641 326.801 36.345L330.689 36.921C333.569 37.337 334.833 38.617 334.481 40.761C334.289 42.009 333.649 43.001 332.561 43.737C331.505 44.441 330.113 44.793 328.385 44.793H327.041C325.569 44.793 324.369 44.505 323.441 43.929C322.545 43.353 322.065 42.601 322.001 41.673Z" fill="black"/>
</svg>
